<?xml version="1.0" encoding="UTF-8" standalone="no"?>
<svg
   version="1.1"
   width="50.000004"
   height="30.395269"
   id="svg1"
   xmlns="http://www.w3.org/2000/svg"
   xmlns:svg="http://www.w3.org/2000/svg">
  <defs
     id="defs1" />
  <path
     d="m 6.441862,1 c 0.04605,0 0.09209,0 0.139535,0 0,0.04605 0,0.09209 0,0.139535 0.0366,0.01502 0.07321,0.03004 0.11092,0.04551 0.234106,0.130903 0.42565,0.305762 0.625999,0.482104 0.08797,0.07647 0.175994,0.152867 0.264081,0.229197 0.06504,0.05641 0.06504,0.05641 0.131393,0.113951 0.166594,0.143051 0.336501,0.281747 0.507142,0.419934 0.294972,0.239447 0.584322,0.48457 0.872093,0.732558 0.349948,0.301516 0.704076,0.596846 1.062591,0.888172 0.41006,0.336029 0.812487,0.681242 1.216434,1.024573 0.389082,0.33056 0.778591,0.660168 1.174464,0.982604 0.474707,0.386645 0.940448,0.783703 1.406931,1.180187 0.115278,0.09794 0.230626,0.195795 0.345976,0.29365 0.06709,0.05702 0.134182,0.114037 0.203306,0.172783 0.0574,0.04544 0.0574,0.04544 0.115958,0.09179 0.125503,0.110422 0.125503,0.110422 0.249941,0.264832 0.384847,0.415014 0.707908,0.512263 1.259961,0.544735 0.43,0.01162 0.859291,0.0096 1.289384,0.0053 0.186614,3.95e-4 0.373212,0.001 0.559822,0.002 0.439323,0.0017 0.878575,3.11e-4 1.317892,-0.0023 0.549836,-0.0031 1.099653,-0.0019 1.649493,-6.67e-4 0.979557,0.0021 1.958955,-0.0022 2.938545,-0.0059 0,-1.427442 0,-2.854884 0,-4.325581 1.667859,-0.0063 3.335708,-0.01145 5.003576,-0.01446 0.774551,-0.0014 1.549094,-0.0034 2.32364,-0.0066 0.67569,-0.0028 1.351374,-0.0046 2.02707,-0.0052 0.357237,-3.62e-4 0.714457,-0.0012 1.071688,-0.0032 0.337406,-0.0019 0.67479,-0.0025 1.012201,-0.0021 0.12272,-7.6e-5 0.24544,-6.16e-4 0.368155,-0.0017 2.499414,-0.02099 4.730507,0.903317 6.513619,2.654247 1.177591,1.193043 2.400981,3.176626 2.400981,4.913903 1.450465,0.02302 2.90093,0.04605 4.395349,0.06977 0,0.759767 0,1.519535 0,2.302326 -1.473488,0 -2.946977,0 -4.465116,0 0,0.161162 0,0.322325 0,0.488372 -0.274301,1.564025 -1.010763,2.909705 -2.023256,4.116279 -0.05518,0.07824 -0.05518,0.07824 -0.111464,0.158067 -0.03229,0.03993 -0.06457,0.07986 -0.09784,0.121002 -0.04605,0 -0.09209,0 -0.139535,0 0,0.04605 0,0.09209 0,0.139535 -0.04605,0 -0.09209,0 -0.139535,0 0,0.04605 0,0.09209 0,0.139535 -0.241967,0.225586 -0.506805,0.424428 -0.767442,0.627907 -0.09038,0.07217 -0.09038,0.07217 -0.182595,0.145803 -1.65475,1.269983 -3.62152,1.680557 -5.665351,1.676071 -0.125878,-2e-5 -0.251757,-9e-6 -0.377636,3.1e-5 -0.340285,2e-5 -0.680568,-3.89e-4 -1.020853,-8.77e-4 -0.356156,-4.38e-4 -0.712312,-4.78e-4 -1.068468,-5.6e-4 -0.673789,-2.17e-4 -1.347577,-7.89e-4 -2.021366,-0.0015 -0.767357,-7.81e-4 -1.534715,-0.0012 -2.302072,-0.0015 -1.577918,-7.29e-4 -3.155835,-0.002 -4.733752,-0.0035 0,-1.795814 0,-3.591628 0,-5.441861 -1.05907,0 -2.11814,0 -3.209302,0 0,4.305349 0,8.610698 0,13.046512 -4.351396,0 -8.702791,0 -13.186047,0 0,-0.736744 0,-1.473489 0,-2.232558 3.614651,0 7.229302,0 10.953488,0 0,-4.328372 0,-8.656744 0,-13.116279 1.795814,0 3.591628,0 5.441861,0 0,-1.036047 0,-2.072093 0,-3.139535 -1.073537,-0.01141 -2.146945,-0.01897 -3.220534,-0.0197 -0.498606,-4.59e-4 -0.997096,-0.0026 -1.495667,-0.0088 -0.435049,-0.0054 -0.869977,-0.0075 -1.305058,-0.0059 -0.230017,7.55e-4 -0.459723,-5.04e-4 -0.689709,-0.0047 -1.23922,-0.04003 -1.23922,-0.04003 -2.280975,0.548899 -0.113786,0.116186 -0.222289,0.234639 -0.3284,0.35785 -0.146343,0.162399 -0.314248,0.293348 -0.486343,0.427357 -0.293685,0.237828 -0.581517,0.481502 -0.867733,0.728198 -0.349944,0.301519 -0.704076,0.596846 -1.062591,0.888172 -0.37074,0.303808 -0.734985,0.615371 -1.100199,0.925781 -0.489234,0.41582 -0.980206,0.828669 -1.478198,1.234012 -0.257682,0.211871 -0.511778,0.427821 -0.76596,0.643867 -0.297222,0.252192 -0.598652,0.498826 -0.901373,0.744396 -0.156251,0.129441 -0.310243,0.260395 -0.463299,0.393532 -0.04439,0.03854 -0.08878,0.07708 -0.13451,0.116795 -0.08751,0.07622 -0.174761,0.152738 -0.261731,0.229572 -0.305171,0.265733 -0.305171,0.265733 -0.460046,0.265733 0,0.04605 0,0.09209 0,0.139535 -0.04605,0 -0.09209,0 -0.139535,0 0,-2.509535 0,-5.01907 0,-7.604651 -1.795813,0 -3.591627,0 -5.44186,0 0,-0.759768 0,-1.519535 0,-2.302326 1.795814,0 3.591628,0 5.44186,0 0,-2.509535 0,-5.01907 0,-7.604651 z m 2.232559,4.813953 c 0,2.601628 0,5.203256 0,7.883721 0.337441,-0.221745 0.337441,-0.221745 0.646166,-0.467387 0.05815,-0.05046 0.05815,-0.05046 0.117477,-0.101943 0.0401,-0.03516 0.08021,-0.07032 0.121531,-0.106542 0.0866,-0.0751 0.17327,-0.15014 0.259993,-0.225109 0.04247,-0.03672 0.08494,-0.07343 0.128702,-0.11126 0.167626,-0.143559 0.338263,-0.283204 0.509561,-0.422352 0.43412,-0.352762 0.860136,-0.714789 1.286337,-1.077034 0.553771,-0.470674 1.110087,-0.937325 1.674419,-1.395349 C 12.911632,9.278349 12.372875,8.81015 11.812865,8.356922 11.57761,8.163853 11.346749,7.966174 11.116281,7.767442 10.767214,7.466663 10.414211,7.171789 10.056143,6.881722 9.909715,6.761398 9.765004,6.639908 9.621187,6.516533 9.580497,6.481693 9.539807,6.446843 9.497884,6.410945 9.418854,6.343095 9.340027,6.275005 9.261431,6.206651 9.068956,6.04154 8.904004,5.928745 8.674421,5.813953 Z m 17.44186,0.697675 c 0,4.305349 0,8.610698 0,13.046512 2.393699,0.0043 2.393699,0.0043 4.835756,0.0087 0.501503,0.0013 1.003007,0.0025 1.519707,0.0038 0.454567,4.67e-4 0.454567,4.67e-4 0.909135,7.47e-4 0.200467,1.29e-4 0.400929,6.46e-4 0.601395,0.0014 2.001627,0.06273 2.001627,0.06273 3.942147,-0.337406 0.05096,-0.01815 0.101929,-0.0363 0.154438,-0.055 1.721067,-0.636651 2.987731,-1.832163 3.787422,-3.490058 0.681105,-1.569303 0.715498,-3.359776 0.139535,-4.962209 -0.326284,-0.799201 -0.730022,-1.481522 -1.30814,-2.123547 -0.07069,-0.08054 -0.07069,-0.08054 -0.142805,-0.1627 C 39.489113,7.29798 37.919722,6.62537 36.372095,6.511544 c -0.337579,-0.0095 -0.675054,-0.0088 -1.012735,-0.0079 -0.102761,2.1e-5 -0.205522,1.2e-5 -0.308283,-2.6e-5 -0.273594,-1.6e-5 -0.547187,3.87e-4 -0.820781,8.8e-4 -0.257335,3.99e-4 -0.51467,4.16e-4 -0.772005,4.66e-4 -0.751116,3.65e-4 -1.502232,0.0013 -2.253347,0.0022 -1.679259,0.0014 -3.358518,0.0029 -5.088663,0.0044 z"
     fill="#000000"
     id="path1"
     style="stroke:#000000;stroke-width:2;stroke-linecap:round;stroke-linejoin:round;stroke-dasharray:none;stroke-opacity:1;paint-order:normal" />
</svg>
