<?xml version="1.0" encoding="UTF-8" standalone="no"?>
<svg
   viewBox="0 0 31.999996 19.831947"
   version="1.1"
   x="0px"
   y="0px"
   id="svg6"
   width="32"
   height="19.831949"
   xmlns="http://www.w3.org/2000/svg"
   xmlns:svg="http://www.w3.org/2000/svg">
  <defs
     id="defs6" />
  <g
     transform="matrix(3.018979,0,0,3.0121474,-352.53065,-361.57534)"
     id="g5">
    <path
       style="color:#000000"
       d="m 125.14453,121.96094 c -0.75144,0 -1.36914,0.61769 -1.36914,1.36914 0,0.75144 0.6177,1.36914 1.36914,1.36914 0.75145,0 1.36914,-0.6177 1.36914,-1.36914 0,-0.75145 -0.61769,-1.36914 -1.36914,-1.36914 z m 0,0.79492 c 0.32247,0 0.57422,0.25175 0.57422,0.57422 0,0.32247 -0.25175,0.57617 -0.57422,0.57617 -0.32247,0 -0.57617,-0.2537 -0.57617,-0.57617 0,-0.32247 0.2537,-0.57422 0.57617,-0.57422 z"
       fill="#000000"
       stroke-linecap="round"
       stroke-linejoin="round"
       id="path1" />
    <path
       style="color:#000000"
       d="m 119.63672,120.03906 c -0.47769,0 -0.87305,0.39536 -0.87305,0.87305 v 4.83594 c 0,0.47769 0.39536,0.875 0.87305,0.875 h 1.64062 c 1.81301,0 3.29102,-1.47974 3.29102,-3.29297 0,-1.81323 -1.47779,-3.29102 -3.29102,-3.29102 z m 0,0.79297 h 1.64062 c 1.38426,0 2.49805,1.1138 2.49805,2.49805 0,1.38426 -1.11408,2.49805 -2.49805,2.49805 h -1.64062 c -0.0487,0 -0.0781,-0.0314 -0.0781,-0.0801 v -4.83594 c 0,-0.0487 0.0294,-0.0801 0.0781,-0.0801 z"
       fill="#000000"
       stroke-linecap="round"
       stroke-linejoin="round"
       id="path2" />
    <path
       style="color:#000000"
       d="m 126.11719,122.93359 a 0.3968755,0.3968755 0 0 0 -0.39844,0.39649 0.3968755,0.3968755 0 0 0 0.39844,0.39648 h 0.85742 a 0.3968755,0.3968755 0 0 0 0.39648,-0.39648 0.3968755,0.3968755 0 0 0 -0.39648,-0.39649 z"
       fill="#000000"
       stroke-linecap="round"
       stroke-linejoin="round"
       id="path3" />
    <path
       style="color:#000000"
       d="m 117.17383,124.37891 a 0.3968755,0.3968755 0 0 0 -0.39844,0.39648 0.3968755,0.3968755 0 0 0 0.39844,0.39844 h 1.98633 a 0.3968755,0.3968755 0 0 0 0.39843,-0.39844 0.3968755,0.3968755 0 0 0 -0.39843,-0.39648 z"
       fill="#000000"
       stroke-linecap="round"
       stroke-linejoin="round"
       id="path4" />
    <path
       style="color:#000000"
       d="m 117.16992,121.48828 a 0.3968755,0.3968755 0 0 0 -0.39844,0.39649 0.3968755,0.3968755 0 0 0 0.39844,0.39648 h 1.99024 a 0.3968755,0.3968755 0 0 0 0.39843,-0.39648 0.3968755,0.3968755 0 0 0 -0.39843,-0.39649 z"
       fill="#000000"
       stroke-linecap="round"
       stroke-linejoin="round"
       id="path5" />
  </g>
</svg>
