<?xml version="1.0" encoding="UTF-8" standalone="no"?>
<svg
   viewBox="0 0 32 19.906324"
   version="1.1"
   x="0px"
   y="0px"
   id="svg6"
   width="32"
   height="19.906324"
   xmlns="http://www.w3.org/2000/svg"
   xmlns:svg="http://www.w3.org/2000/svg">
  <defs
     id="defs6" />
  <g
     transform="matrix(3.0239924,0,0,3.0239924,-261.80568,-378.22096)"
     id="g5">
    <path
       style="color:#000000"
       d="m 94.46875,126.99609 c -0.751445,0 -1.369141,0.6177 -1.369141,1.36914 0,0.75145 0.617696,1.36914 1.369141,1.36914 0.751446,10e-6 1.369141,-0.61769 1.369141,-1.36914 0,-0.75144 -0.617695,-1.36914 -1.369141,-1.36914 z m 0,0.79297 c 0.322472,0 0.576172,0.2537 0.576172,0.57617 0,0.32248 -0.2537,0.57422 -0.576172,0.57422 -0.322471,0 -0.576172,-0.25174 -0.576172,-0.57422 0,-0.32247 0.253701,-0.57617 0.576172,-0.57617 z"
       fill="#000000"
       stroke-linecap="round"
       stroke-linejoin="round"
       id="path1" />
    <path
       style="color:#000000"
       d="m 89.728516,125.11914 c -0.199045,0.066 -0.368017,0.21692 -0.460938,0.39258 -0.185841,0.35131 -0.140412,0.74833 0.0039,1.1582 0.20215,0.57416 0.28852,1.13492 0.279297,1.6875 a 0.39691519,0.39691519 0 0 0 0,0.0137 c 0.0082,0.55365 -0.07728,1.11376 -0.279297,1.6875 -0.144291,0.40982 -0.191501,0.80689 -0.0059,1.15821 0.09282,0.17566 0.263884,0.32647 0.462891,0.39257 0.199007,0.0661 0.410748,0.0579 0.623046,0.002 1.685333,-0.44416 2.764787,-1.66613 3.300782,-2.41992 0.17683,-0.24868 0.240156,-0.53907 0.240234,-0.82618 7.8e-5,-0.2871 -0.06345,-0.57944 -0.240234,-0.82812 -0.535781,-0.75364 -1.615384,-1.97358 -3.300782,-2.41797 -0.212351,-0.056 -0.424002,-0.066 -0.623046,0 z m 0.25,0.75391 c 0.0123,-0.004 0.06394,-0.0143 0.169921,0.0137 1.41518,0.37314 2.381164,1.44141 2.857422,2.11133 0.04674,0.0657 0.09379,0.21468 0.09375,0.36718 -4.1e-5,0.15251 -0.04682,0.30119 -0.09375,0.36719 -0.476464,0.67007 -1.442297,1.73839 -2.857422,2.11133 -0.105886,0.0279 -0.157715,0.0177 -0.169921,0.0137 -0.01221,-0.004 -4.3e-4,0.006 -0.0098,-0.0117 -0.01867,-0.0353 -0.04934,-0.23908 0.05078,-0.52343 0.231887,-0.65858 0.334988,-1.31417 0.326172,-1.95704 0.01009,-0.64389 -0.09446,-1.30085 -0.326172,-1.95898 -0.100111,-0.28432 -0.06946,-0.48812 -0.05078,-0.52344 0.0093,-0.0177 -0.0025,-0.006 0.0098,-0.01 z"
       fill="#000000"
       stroke-linecap="round"
       stroke-linejoin="round"
       id="path2" />
    <path
       style="color:#000000"
       d="m 86.976562,129.41406 a 0.3968755,0.3968755 0 0 0 -0.396484,0.39649 0.3968755,0.3968755 0 0 0 0.396484,0.39648 h 2.78711 a 0.3968755,0.3968755 0 0 0 0.396484,-0.39648 0.3968755,0.3968755 0 0 0 -0.396484,-0.39649 z"
       fill="#000000"
       stroke-linecap="round"
       stroke-linejoin="round"
       id="path3" />
    <path
       style="color:#000000"
       d="m 86.972656,126.52148 a 0.3968755,0.3968755 0 0 0 -0.396484,0.39649 0.3968755,0.3968755 0 0 0 0.396484,0.39844 h 2.791016 a 0.3968755,0.3968755 0 0 0 0.398437,-0.39844 0.3968755,0.3968755 0 0 0 -0.398437,-0.39649 z"
       fill="#000000"
       stroke-linecap="round"
       stroke-linejoin="round"
       id="path4" />
    <path
       style="color:#000000"
       d="m 95.441406,127.9668 a 0.3968755,0.3968755 0 0 0 -0.396484,0.39843 0.3968755,0.3968755 0 0 0 0.396484,0.39649 h 1.320313 a 0.3968755,0.3968755 0 0 0 0.396484,-0.39649 0.3968755,0.3968755 0 0 0 -0.396484,-0.39843 z"
       fill="#000000"
       stroke-linecap="round"
       stroke-linejoin="round"
       id="path5" />
  </g>
</svg>
