<?xml version="1.0" encoding="UTF-8" standalone="no"?>
<svg
   viewBox="0 0 32.000001 18.872034"
   version="1.1"
   x="0px"
   y="0px"
   id="svg6"
   width="32"
   height="18.872034"
   xmlns="http://www.w3.org/2000/svg"
   xmlns:svg="http://www.w3.org/2000/svg">
  <defs
     id="defs6" />
  <g
     transform="matrix(3.0234355,0,0,3.0234355,-421.56256,-401.49477)"
     id="g5">
    <path
       style="color:#000000"
       d="m 147.32422,134.54687 c -0.75145,10e-6 -1.36914,0.6177 -1.36914,1.36915 0,0.75144 0.61769,1.36914 1.36914,1.36914 0.75144,0 1.36914,-0.6177 1.36914,-1.36914 0,-0.75145 -0.6177,-1.36914 -1.36914,-1.36915 z m 0,0.79297 c 0.32247,0 0.57617,0.2537 0.57617,0.57618 0,0.32247 -0.2537,0.57421 -0.57617,0.57421 -0.32247,0 -0.57422,-0.25174 -0.57422,-0.57421 0,-0.32248 0.25175,-0.57618 0.57422,-0.57618 z"
       fill="#000000"
       stroke-linecap="round"
       stroke-linejoin="round"
       id="path1" />
    <path
       style="color:#000000"
       d="m 148.29687,135.51758 a 0.3968755,0.3968755 0 0 0 -0.39648,0.39844 0.3968755,0.3968755 0 0 0 0.39648,0.39648 h 1.32227 a 0.3968755,0.3968755 0 0 0 0.39648,-0.39648 0.3968755,0.3968755 0 0 0 -0.39648,-0.39844 z"
       fill="#000000"
       stroke-linecap="round"
       stroke-linejoin="round"
       id="path2" />
    <path
       style="color:#000000"
       d="m 139.83008,134.07227 a 0.3968755,0.3968755 0 0 0 -0.39844,0.39648 0.3968755,0.3968755 0 0 0 0.39844,0.39844 h 2.375 a 0.3968755,0.3968755 0 0 0 0.39648,-0.39844 0.3968755,0.3968755 0 0 0 -0.39648,-0.39648 z"
       fill="#000000"
       stroke-linecap="round"
       stroke-linejoin="round"
       id="path3" />
    <path
       style="color:#000000"
       d="m 142.01758,132.8418 a 0.39691468,0.39691468 0 0 0 -0.20899,0.34961 v 5.44726 a 0.39691468,0.39691468 0 0 0 0.61524,0.33203 l 4.14648,-2.72461 a 0.39691468,0.39691468 0 0 0 0,-0.66211 l -4.14648,-2.72461 a 0.39691468,0.39691468 0 0 0 -0.40625,-0.0176 z m 0.58398,1.08398 3.0293,1.98828 -3.0293,1.99024 z"
       fill="#000000"
       stroke-linecap="round"
       stroke-linejoin="round"
       id="path4" />
    <path
       style="color:#000000"
       d="m 139.83008,136.96484 a 0.3968755,0.3968755 0 0 0 -0.39844,0.39649 0.3968755,0.3968755 0 0 0 0.39844,0.39648 h 2.375 a 0.3968755,0.3968755 0 0 0 0.39648,-0.39648 0.3968755,0.3968755 0 0 0 -0.39648,-0.39649 z"
       fill="#000000"
       stroke-linecap="round"
       stroke-linejoin="round"
       id="path5" />
  </g>
</svg>
