<?xml version="1.0" encoding="UTF-8" standalone="no"?>
<svg
   viewBox="0 0 32.000001 19.90961"
   version="1.1"
   x="0px"
   y="0px"
   id="svg5"
   width="32"
   height="19.909611"
   xmlns="http://www.w3.org/2000/svg"
   xmlns:svg="http://www.w3.org/2000/svg">
  <defs
     id="defs5" />
  <g
     transform="matrix(3.0239945,0,0,3.0239945,-353.14586,-180.32653)"
     id="g4">
    <path
       style="color:#000000"
       d="m 120.22852,59.677734 c -0.19905,0.06604 -0.36802,0.216924 -0.46094,0.392578 -0.18584,0.351309 -0.14041,0.750286 0.004,1.160157 0.20215,0.574154 0.29048,1.13492 0.28125,1.6875 a 0.39691519,0.39691519 0 0 0 0,0.01172 c 0.008,0.553652 -0.0792,1.113759 -0.28125,1.6875 -0.14429,0.409824 -0.18954,0.808837 -0.004,1.160157 0.0928,0.17566 0.26193,0.326468 0.46094,0.392578 0.199,0.06611 0.41075,0.05595 0.62304,0 1.68533,-0.444155 2.76479,-1.666131 3.30078,-2.419922 0.17682,-0.248679 0.24211,-0.539066 0.24219,-0.826172 8e-5,-0.287105 -0.0634,-0.577486 -0.24023,-0.826172 -0.53578,-0.753641 -1.61539,-1.975527 -3.30078,-2.419922 -0.21235,-0.05599 -0.42596,-0.06604 -0.625,0 z m 0.25,0.753907 c 0.0123,-0.0041 0.0659,-0.01427 0.17187,0.01367 1.41518,0.373146 2.37921,1.441412 2.85547,2.111329 0.0467,0.06574 0.0957,0.214681 0.0957,0.367187 -4e-5,0.152507 -0.0488,0.301187 -0.0957,0.367188 -0.47646,0.670067 -1.44034,1.738384 -2.85547,2.111328 -0.10588,0.02791 -0.15967,0.01773 -0.17187,0.01367 -0.0122,-0.0041 -4.3e-4,0.0079 -0.01,-0.0098 -0.0187,-0.03534 -0.0474,-0.241034 0.0527,-0.525391 0.23189,-0.658578 0.33303,-1.314177 0.32422,-1.957031 0.0101,-0.643897 -0.0925,-1.298904 -0.32422,-1.957031 -0.10011,-0.284319 -0.0714,-0.490077 -0.0527,-0.525391 0.009,-0.01766 -0.003,-0.0057 0.01,-0.0098 z"
       fill="#000000"
       stroke-linecap="round"
       stroke-linejoin="round"
       id="path1" />
    <path
       style="color:#000000"
       d="m 123.99805,62.527344 a 0.3968755,0.3968755 0 0 0 -0.39649,0.396484 0.3968755,0.3968755 0 0 0 0.39649,0.396484 h 2.96875 a 0.3968755,0.3968755 0 0 0 0.39648,-0.396484 0.3968755,0.3968755 0 0 0 -0.39648,-0.396484 z"
       fill="#000000"
       stroke-linecap="round"
       stroke-linejoin="round"
       id="path2" />
    <path
       style="color:#000000"
       d="m 117.17773,61.082031 a 0.3968755,0.3968755 0 0 0 -0.39648,0.396485 0.3968755,0.3968755 0 0 0 0.39648,0.396484 h 3.0879 a 0.3968755,0.3968755 0 0 0 0.39648,-0.396484 0.3968755,0.3968755 0 0 0 -0.39648,-0.396485 z"
       fill="#000000"
       stroke-linecap="round"
       stroke-linejoin="round"
       id="path3" />
    <path
       style="color:#000000"
       d="m 117.17773,63.972656 a 0.3968755,0.3968755 0 0 0 -0.39648,0.396485 0.3968755,0.3968755 0 0 0 0.39648,0.396484 h 3.0879 a 0.3968755,0.3968755 0 0 0 0.39648,-0.396484 0.3968755,0.3968755 0 0 0 -0.39648,-0.396485 z"
       fill="#000000"
       stroke-linecap="round"
       stroke-linejoin="round"
       id="path4" />
  </g>
</svg>
