<?xml version="1.0" encoding="UTF-8" standalone="no"?>
<svg
   viewBox="0 0 10.583991 6.5827959"
   version="1.1"
   x="0px"
   y="0px"
   id="svg7"
   width="10.583991"
   height="6.5827961"
   xmlns="http://www.w3.org/2000/svg"
   xmlns:svg="http://www.w3.org/2000/svg">
  <defs
     id="defs7" />
  <g
     transform="translate(-68.957394,-147.72573)"
     id="g6">
    <path
       style="color:#000000"
       d="m 76.849975,149.64844 c -0.751445,0 -1.36914,0.61769 -1.36914,1.36914 0,0.75144 0.617695,1.36914 1.36914,1.36914 0.751446,0 1.369141,-0.6177 1.369141,-1.36914 0,-0.75145 -0.617695,-1.36914 -1.369141,-1.36914 z m 0,0.79297 c 0.322473,0 0.576172,0.2537 0.576172,0.57617 0,0.32247 -0.253699,0.57422 -0.576172,0.57422 -0.32247,0 -0.574218,-0.25175 -0.574218,-0.57422 0,-0.32247 0.251747,-0.57617 0.574218,-0.57617 z"
       fill="#000000"
       stroke-linecap="round"
       stroke-linejoin="round"
       id="path1" />
    <path
       style="color:#000000"
       d="m 72.109741,147.77148 c -0.199044,0.066 -0.368016,0.21693 -0.460938,0.39258 -0.18584,0.35131 -0.140412,0.74834 0.0039,1.15821 0.20215,0.57415 0.288521,1.13492 0.279297,1.6875 -7.8e-5,0.005 -7.8e-5,0.009 0,0.0137 0.0082,0.55365 -0.07728,1.11375 -0.279297,1.6875 -0.14429,0.40982 -0.189549,0.80688 -0.0039,1.1582 0.09282,0.17566 0.261932,0.32647 0.460938,0.39258 0.199007,0.0661 0.41075,0.0579 0.623047,0.002 1.685332,-0.44415 2.764786,-1.66613 3.300781,-2.41992 0.17683,-0.24868 0.242109,-0.53907 0.242188,-0.82617 7.8e-5,-0.28711 -0.0654,-0.57944 -0.242188,-0.82813 -0.53578,-0.75364 -1.615384,-1.97357 -3.300781,-2.41797 -0.212351,-0.056 -0.424003,-0.066 -0.623047,0 z m 0.25,0.75391 c 0.0123,-0.004 0.0659,-0.0143 0.171875,0.0137 1.415181,0.37315 2.37921,1.44141 2.855469,2.11133 0.04674,0.0658 0.09379,0.21468 0.09375,0.36719 -4.1e-5,0.1525 -0.04682,0.30119 -0.09375,0.36719 -0.476463,0.67006 -1.442297,1.73838 -2.857422,2.11132 -0.105887,0.0279 -0.157715,0.0177 -0.169922,0.0137 -0.01221,-0.004 -4.29e-4,0.006 -0.0098,-0.0117 -0.01867,-0.0353 -0.04934,-0.23908 0.05078,-0.52344 0.231886,-0.65857 0.334987,-1.31416 0.326171,-1.95703 0.01009,-0.6439 -0.09446,-1.30086 -0.326171,-1.95899 -0.10011,-0.28431 -0.06946,-0.48812 -0.05078,-0.52343 0.0093,-0.0177 -0.0025,-0.006 0.0098,-0.01 z"
       fill="#000000"
       stroke-linecap="round"
       stroke-linejoin="round"
       id="path2" />
    <path
       style="color:#000000"
       d="m 69.359741,152.06641 c -0.219644,-8.6e-4 -0.398221,0.17683 -0.398438,0.39648 2.18e-4,0.21965 0.178794,0.39734 0.398438,0.39648 l 1.298389,0.0226 c 0.218882,-2.2e-4 0.396267,-0.1776 0.396485,-0.39648 -2.18e-4,-0.21889 -0.177603,-0.39627 -0.396485,-0.39648 z"
       fill="#000000"
       stroke-linecap="round"
       stroke-linejoin="round"
       id="path3" />
    <path
       style="color:#000000"
       d="m 69.355835,149.17383 c -0.220411,-8.7e-4 -0.399309,0.17803 -0.398438,0.39844 2.18e-4,0.21965 0.178794,0.39734 0.398438,0.39648 H 70.7258 c 0.218881,-2.2e-4 0.396267,-0.1776 0.396485,-0.39648 8.66e-4,-0.21965 -0.176837,-0.39823 -0.396485,-0.39844 z"
       fill="#000000"
       stroke-linecap="round"
       stroke-linejoin="round"
       id="path4" />
    <path
       style="color:#000000"
       d="m 77.822632,150.61914 c -0.219648,2.1e-4 -0.39735,0.17879 -0.396485,0.39844 2.19e-4,0.21888 0.177604,0.39626 0.396485,0.39648 h 1.322265 c 0.218882,-2.2e-4 0.396267,-0.1776 0.396485,-0.39648 8.66e-4,-0.21965 -0.176836,-0.39823 -0.396485,-0.39844 z"
       fill="#000000"
       stroke-linecap="round"
       stroke-linejoin="round"
       id="path5" />
    <path
       style="color:#000000"
       d="m 70.609741,148.11914 c -0.101483,-0.0273 -0.209652,-0.0132 -0.300781,0.0391 -0.190054,0.10987 -0.254813,0.35316 -0.144532,0.54297 0.366637,0.63503 0.527335,1.03115 0.513672,2.3125 -2.7e-5,0.003 -2.7e-5,0.005 0,0.008 0.01369,1.28134 -0.14703,1.67551 -0.513672,2.31055 -0.110281,0.18981 -0.04552,0.4331 0.144532,0.54297 0.189813,0.11028 0.433099,0.0455 0.542968,-0.14453 0.397854,-0.6891 0.634957,-1.35325 0.621094,-2.71289 0.01383,-1.35964 -0.223235,-2.02379 -0.621094,-2.71289 -0.05278,-0.0917 -0.13996,-0.15844 -0.242187,-0.18555 z"
       fill="#000000"
       stroke-linecap="round"
       stroke-linejoin="round"
       id="path6" />
  </g>
</svg>
