<?xml version="1.0" encoding="UTF-8" standalone="no"?>
<svg
   viewBox="0 0 32.000002 19.906549"
   version="1.1"
   x="0px"
   y="0px"
   id="svg6"
   width="32"
   height="19.906549"
   xmlns="http://www.w3.org/2000/svg"
   xmlns:svg="http://www.w3.org/2000/svg">
  <defs
     id="defs6" />
  <g
     transform="matrix(3.0239945,0,0,3.0239945,-398.81289,-431.49835)"
     id="g5">
    <path
       style="color:#000000"
       d="m 135.95508,142.73633 c -0.21235,-0.056 -0.42596,-0.0641 -0.625,0.002 -0.19905,0.066 -0.36802,0.21693 -0.46094,0.39258 -0.18584,0.35131 -0.14041,0.74833 0.004,1.1582 0.20215,0.57416 0.29047,1.13492 0.28125,1.6875 a 0.39691519,0.39691519 0 0 0 0,0.0117 c 0.008,0.55365 -0.0792,1.11571 -0.28125,1.68945 -0.1443,0.40983 -0.18955,0.80689 -0.004,1.15821 0.0928,0.17566 0.26193,0.32647 0.46094,0.39258 0.199,0.0661 0.41075,0.0559 0.62304,0 1.68534,-0.44416 2.76479,-1.66418 3.30079,-2.41797 0.17682,-0.24868 0.24211,-0.54102 0.24218,-0.82813 8e-5,-0.2871 -0.0634,-0.57748 -0.24023,-0.82617 -0.53578,-0.75364 -1.61538,-1.97553 -3.30078,-2.41992 z m -0.375,0.7539 c 0.0123,-0.004 0.0659,-0.0143 0.17187,0.0137 1.41518,0.37314 2.37921,1.44336 2.85547,2.11328 0.0467,0.0657 0.0958,0.21273 0.0957,0.36523 -4e-5,0.15251 -0.0488,0.30119 -0.0957,0.36719 -0.47646,0.67007 -1.44034,1.73838 -2.85547,2.11133 -0.10588,0.0279 -0.15967,0.0177 -0.17187,0.0137 -0.0122,-0.004 -4.3e-4,0.008 -0.01,-0.01 -0.0187,-0.0353 -0.0474,-0.23908 0.0527,-0.52343 0.23162,-0.65784 0.33081,-1.31488 0.32226,-1.95704 0.0101,-0.64379 -0.0906,-1.30096 -0.32226,-1.95898 -0.10011,-0.28432 -0.0714,-0.48812 -0.0527,-0.52344 0.009,-0.0177 -0.003,-0.008 0.01,-0.0117 z"
       fill="#000000"
       stroke-linecap="round"
       stroke-linejoin="round"
       id="path1" />
    <path
       style="color:#000000"
       d="m 132.28125,147.03125 c -0.21888,2.2e-4 -0.39626,0.1776 -0.39648,0.39648 -8.7e-4,0.21964 0.17683,0.39822 0.39648,0.39844 l 1.60699,0.0394 c 0.21965,-2.2e-4 0.39735,-0.1788 0.39648,-0.39844 -2.1e-4,-0.21888 -0.1776,-0.39626 -0.39648,-0.39648 z"
       fill="#000000"
       stroke-linecap="round"
       stroke-linejoin="round"
       id="path2" />
    <path
       style="color:#000000"
       d="m 132.2793,144.14062 c -0.21889,2.1e-4 -0.39628,0.1776 -0.39649,0.39649 2.2e-4,0.21888 0.17761,0.39627 0.39649,0.39648 h 1.78642 c 0.21888,-2.2e-4 0.39626,-0.1776 0.39648,-0.39648 -2.2e-4,-0.21888 -0.1776,-0.39627 -0.39648,-0.39649 z"
       fill="#000000"
       stroke-linecap="round"
       stroke-linejoin="round"
       id="path3" />
    <path
       style="color:#000000"
       d="m 139.09961,145.58594 a 0.3968755,0.3968755 0 0 0 -0.39649,0.39648 0.3968755,0.3968755 0 0 0 0.39649,0.39649 h 2.96875 a 0.3968755,0.3968755 0 0 0 0.39648,-0.39649 0.3968755,0.3968755 0 0 0 -0.39648,-0.39648 z"
       fill="#000000"
       stroke-linecap="round"
       stroke-linejoin="round"
       id="path4" />
    <path
       style="color:#000000"
       d="m 133.79687,143.08594 a 0.3968755,0.3968755 0 0 0 -0.30078,0.0391 0.3968755,0.3968755 0 0 0 -0.14453,0.54297 c 0.36664,0.63503 0.52734,1.0292 0.51367,2.31055 a 0.39691519,0.39691519 0 0 0 0,0.008 c 0.0137,1.28134 -0.14703,1.67746 -0.51367,2.3125 a 0.3968755,0.3968755 0 0 0 0.14453,0.54297 0.3968755,0.3968755 0 0 0 0.54297,-0.14649 c 0.39786,-0.6891 0.63496,-1.35324 0.6211,-2.71289 0.0138,-1.35963 -0.22324,-2.02183 -0.6211,-2.71094 a 0.3968755,0.3968755 0 0 0 -0.24219,-0.18554 z"
       fill="#000000"
       stroke-linecap="round"
       stroke-linejoin="round"
       id="path5" />
  </g>
</svg>
