<svg xmlns="http://www.w3.org/2000/svg" xmlns:xlink="http://www.w3.org/1999/xlink" version="1.1" x="0px" y="0px" viewBox="0 0 65 81.25" enable-background="new 0 0 65 65" xml:space="preserve"><path d="M63.271,31.192h-4.188c-0.651-2.187-2.657-3.795-5.054-3.795c-1.058,0-2.04,0.319-2.867,0.856  C48.898,19.526,40.123,13,29.667,13H11.607c-0.829,0-1.5,0.671-1.5,1.5c0,0.207,0.042,0.404,0.118,0.584  c0.039,0.093,0.087,0.184,0.146,0.27c1.618,2.37,2.843,4.964,3.708,7.67H1.729c-0.829,0-1.5,0.671-1.5,1.5s0.671,1.5,1.5,1.5h13.156  c0.931,4.381,0.928,8.958-0.014,13.336H1.729c-0.829,0-1.5,0.672-1.5,1.5s0.671,1.5,1.5,1.5h12.324  c-0.864,2.678-2.08,5.246-3.682,7.594c-0.182,0.267-0.264,0.571-0.258,0.871c-0.001,0.02-0.006,0.038-0.006,0.059  c0,0.828,0.671,1.5,1.5,1.5h18.059c10.457,0,19.232-6.526,21.495-15.253c0.828,0.537,1.81,0.856,2.867,0.856  c2.396,0,4.402-1.609,5.054-3.796h4.188c0.828,0,1.5-0.671,1.5-1.5S64.099,31.192,63.271,31.192z M29.667,49.384H14.25  c5.744-10.16,5.755-23.208,0.04-33.384h15.376c10.513,0,19.067,7.488,19.067,16.692c0,0,0,0,0,0l0,0  C48.733,41.896,40.18,49.384,29.667,49.384z M54.028,34.987c-1.266,0-2.295-1.029-2.295-2.295c0-1.266,1.029-2.295,2.295-2.295  c1.267,0,2.297,1.03,2.297,2.295C56.325,33.958,55.295,34.987,54.028,34.987z"/><text x="0" y="80" fill="#000000" font-size="5px" font-weight="bold" font-family="'Helvetica Neue', Helvetica, Arial-Unicode, Arial, Sans-serif">Created by Mohamed Mb</text><text x="0" y="85" fill="#000000" font-size="5px" font-weight="bold" font-family="'Helvetica Neue', Helvetica, Arial-Unicode, Arial, Sans-serif">from the Noun Project</text></svg>