<svg xmlns="http://www.w3.org/2000/svg" xmlns:xlink="http://www.w3.org/1999/xlink" version="1.1" x="0px" y="0px" viewBox="0 0 48 60" style="enable-background:new 0 0 48 48;" xml:space="preserve"><path d="M16.4970703,24c0,4.9892578-2.1992188,8.9853516-2.2929688,9.1533203  c-0.1831055,0.328125-0.5229492,0.5126953-0.8730469,0.5126953c-0.1650391,0-0.3320312-0.0410156-0.4858398-0.1269531  c-0.4824219-0.2685547-0.6557617-0.8769531-0.3881836-1.359375c0.0112305-0.0205078,0.6137695-1.1279297,1.1616211-2.8457031  H6.6660156c-0.5522461,0-1-0.4472656-1-1s0.4477539-1,1-1h7.4755859C14.3520508,26.3115234,14.4970703,25.1845703,14.4970703,24  c0-1.1865234-0.144043-2.3134766-0.3530273-3.3339844H6.6660156c-0.5522461,0-1-0.4477539-1-1s0.4477539-1,1-1h6.9560547  c-0.5483398-1.7207031-1.152832-2.824707-1.1640625-2.8447266c-0.2695312-0.4819336-0.0966797-1.0913086,0.3857422-1.3603516  c0.4814453-0.2709961,1.0913086-0.0966797,1.3603516,0.3857422C14.2978516,15.0141602,16.4970703,19.0112305,16.4970703,24z   M42.3339844,24c0,0.5522461-0.4472656,1-1,1h-5.7988281c-0.5478516,2.4804688-3.3984375,8.6660156-18.2045898,8.6660156  c-0.1650391,0-0.3320312-0.0410156-0.4858398-0.1269531c-0.4824219-0.2685547-0.6557617-0.8769531-0.3881836-1.359375  C16.4770508,32.1425781,18.496582,28.4511719,18.496582,24c0-4.4741211-2.0185547-8.1420898-2.0390625-8.1787109  c-0.2695312-0.4819336-0.0966797-1.0913086,0.3857422-1.3603516c0.1547852-0.0869141,0.3217773-0.1132812,0.4873047-0.112793  v-0.0141602c14.8081055,0,17.6577148,6.1855469,18.2045898,8.6660156h5.7988281C41.8867188,23,42.3339844,23.4477539,42.3339844,24z   M33.6660156,23.9897461c-0.0068359-0.2827148-0.3251953-7.1591797-14.7543945-7.6289062  C19.5859375,17.9931641,20.496582,20.7875977,20.496582,24c0,3.2128906-0.9106445,6.0068359-1.5849609,7.6386719  C33.3398438,31.1699219,33.6591797,24.2924805,33.6660156,23.9897461z"/><text x="0" y="63" fill="#000000" font-size="5px" font-weight="bold" font-family="'Helvetica Neue', Helvetica, Arial-Unicode, Arial, Sans-serif">Created by Knut M. Synstad</text><text x="0" y="68" fill="#000000" font-size="5px" font-weight="bold" font-family="'Helvetica Neue', Helvetica, Arial-Unicode, Arial, Sans-serif">from the Noun Project</text></svg>