<svg xmlns="http://www.w3.org/2000/svg" xmlns:xlink="http://www.w3.org/1999/xlink" version="1.1" x="0px" y="0px" viewBox="0 0 1580 1975" style="enable-background:new 0 0 1580 1580;" xml:space="preserve"><g><g><path d="M788,1228.1H299.4c-13.3,0-24-10.8-24-24c0-5.1,1.6-10,4.6-14.1c173.8-239.2,173.8-560.7,0-799.9c-3-4.1-4.6-9-4.6-14.1    c0-13.3,10.7-24,24-24h488.7c59.1,0,116.5,11.6,170.5,34.4c52.2,22.1,99,53.7,139.2,93.9s71.8,87.1,93.9,139.2    c22.8,54,34.4,111.4,34.4,170.5c0,59.1-11.6,116.5-34.4,170.5c-22.1,52.2-53.7,99-93.9,139.2s-87.1,71.8-139.2,93.9    C904.6,1216.5,847.2,1228.1,788,1228.1z M344.7,1180.1h443.4c215.1,0,390.1-175,390.1-390.1s-175-390.1-390.1-390.1H344.7    c33.2,52.3,59.5,108.5,78.4,167.5c23.1,72,34.8,146.8,34.8,222.5s-11.7,150.6-34.8,222.6C404.2,1071.6,377.9,1127.8,344.7,1180.1z    "/></g><g><path d="M1534,814h-331.9c-13.3,0-24-10.8-24-24s10.8-24,24-24H1534c13.3,0,24,10.8,24,24C1558,803.2,1547.3,814,1534,814z"/></g><g><g><path d="M377.9,538.6H46c-13.3,0-24-10.8-24-24s10.8-24,24-24h331.9c13.3,0,24,10.8,24,24S391.2,538.6,377.9,538.6z"/></g><g><path d="M377.9,1089.4H46c-13.3,0-24-10.8-24-24s10.8-24,24-24h331.9c13.3,0,24,10.8,24,24S391.2,1089.4,377.9,1089.4z"/></g></g></g><text x="0" y="1595" fill="#000000" font-size="5px" font-weight="bold" font-family="'Helvetica Neue', Helvetica, Arial-Unicode, Arial, Sans-serif">Created by Iconbunny</text><text x="0" y="1600" fill="#000000" font-size="5px" font-weight="bold" font-family="'Helvetica Neue', Helvetica, Arial-Unicode, Arial, Sans-serif">from the Noun Project</text></svg>